<svg width="41" height="40" viewBox="0 0 41 40" fill="none" xmlns="http://www.w3.org/2000/svg">
<rect x="0.725677" y="0.5" width="39" height="39" rx="19.5" stroke="#7F7F7F" stroke-linejoin="round" stroke-dasharray="2 2"/>
<path d="M28.2757 18.6301L23.6057 16.6201L22.5657 16.1801C22.4057 16.1001 22.2657 15.8901 22.2657 15.7101V12.6501C22.2657 11.6901 21.5557 10.5501 20.6957 10.1101C20.3957 9.96006 20.0357 9.96006 19.7357 10.1101C18.8857 10.5501 18.1757 11.7001 18.1757 12.6601V15.7201C18.1757 15.9001 18.0357 16.1101 17.8757 16.1901L12.1757 18.6401C11.5457 18.9001 11.0357 19.6901 11.0357 20.3701V21.6901C11.0357 22.5401 11.6757 22.9601 12.4657 22.6201L17.4757 20.4601C17.8657 20.2901 18.1857 20.5001 18.1857 20.9301V22.0401V23.8401C18.1857 24.0701 18.0557 24.4001 17.8957 24.5601L15.5757 26.8901C15.3357 27.1301 15.2257 27.6001 15.3357 27.9401L15.7857 29.3001C15.9657 29.8901 16.6357 30.1701 17.1857 29.8901L19.5657 27.8901C19.9257 27.5801 20.5157 27.5801 20.8757 27.8901L23.2557 29.8901C23.8057 30.1601 24.4757 29.8901 24.6757 29.3001L25.1257 27.9401C25.2357 27.6101 25.1257 27.1301 24.8857 26.8901L22.5657 24.5601C22.3957 24.4001 22.2657 24.0701 22.2657 23.8401V20.9301C22.2657 20.5001 22.5757 20.3001 22.9757 20.4601L27.9857 22.6201C28.7757 22.9601 29.4157 22.5401 29.4157 21.6901V20.3701C29.4157 19.6901 28.9057 18.9001 28.2757 18.6301Z" fill="#7F7F7F"/>
</svg>
